<svg width="50" height="50" viewBox="0 0 50 50" fill="none" xmlns="http://www.w3.org/2000/svg">
<path fill-rule="evenodd" clip-rule="evenodd" d="M28.9327 4.42517C29.2184 4.68372 29.2612 5.11169 29.3468 5.96762L29.6636 9.13559C29.8269 10.7691 29.9086 11.5859 30.4614 11.8149C31.0142 12.0439 31.6495 11.5241 32.9201 10.4845L35.3842 8.46845C36.0499 7.92373 36.3828 7.65138 36.7677 7.67057C37.1525 7.68977 37.4566 7.99389 38.0649 8.60215L41.3977 11.935C42.006 12.5433 42.3101 12.8474 42.3293 13.2322C42.3485 13.6171 42.0761 13.9499 41.5314 14.6157L39.5153 17.0798C38.4758 18.3504 37.956 18.9857 38.1849 19.5385C38.4139 20.0914 39.2307 20.173 40.8642 20.3364L44.0323 20.6532C44.8883 20.7388 45.3162 20.7816 45.5748 21.0673C45.8333 21.353 45.8333 21.7831 45.8333 22.6433V27.3566C45.8333 28.2169 45.8333 28.647 45.5748 28.9326C45.3162 29.2183 44.8883 29.2611 44.0323 29.3467L40.865 29.6635C39.2315 29.8268 38.4147 29.9085 38.1857 30.4613C37.9568 31.0141 38.4765 31.6494 39.5161 32.92L41.5315 35.3833C42.0762 36.0491 42.3486 36.3819 42.3294 36.7668C42.3102 37.1516 42.0061 37.4557 41.3978 38.064L38.065 41.3969C37.4567 42.0051 37.1526 42.3092 36.7678 42.3284C36.3829 42.3476 36.05 42.0753 35.3843 41.5306L32.9202 39.5145C31.6496 38.4749 31.0143 37.9551 30.4615 38.1841C29.9087 38.4131 29.827 39.2299 29.6637 40.8634L29.3468 44.0323C29.2612 44.8882 29.2184 45.3162 28.9327 45.5747C28.647 45.8333 28.2169 45.8333 27.3567 45.8333H22.6433C21.7831 45.8333 21.353 45.8333 21.0673 45.5747C20.7816 45.3162 20.7388 44.8882 20.6532 44.0323L20.3364 40.8642C20.1731 39.2307 20.0914 38.4139 19.5386 38.1849C18.9858 37.9559 18.3505 38.4757 17.0799 39.5153L14.6156 41.5315C13.9499 42.0762 13.617 42.3486 13.2322 42.3294C12.8473 42.3102 12.5432 42.0061 11.935 41.3978L8.60209 38.0649C7.99384 37.4567 7.68971 37.1525 7.67052 36.7677C7.65132 36.3829 7.92368 36.05 8.46839 35.3842L10.4845 32.9201C11.5241 31.6495 12.0439 31.0142 11.8149 30.4614C11.5859 29.9086 10.7692 29.8269 9.13562 29.6635L5.96766 29.3467C5.11172 29.2611 4.68376 29.2183 4.42521 28.9326C4.16666 28.6469 4.16666 28.2168 4.16666 27.3566V22.6433C4.16666 21.7831 4.16666 21.353 4.42521 21.0673C4.68376 20.7816 5.11173 20.7388 5.96766 20.6532L9.13641 20.3363C10.7699 20.173 11.5867 20.0913 11.8157 19.5385C12.0447 18.9857 11.5249 18.3504 10.4853 17.0798L8.46849 14.6148C7.92378 13.949 7.65142 13.6161 7.67061 13.2313C7.68981 12.8464 7.99394 12.5423 8.60219 11.9341L11.9351 8.6012C12.5433 7.99295 12.8474 7.68882 13.2323 7.66963C13.6171 7.65043 13.95 7.92279 14.6157 8.4675L17.08 10.4837C18.3506 11.5233 18.9859 12.0431 19.5387 11.8141C20.0915 11.5851 20.1732 10.7683 20.3365 9.13478L20.6532 5.96762C20.7388 5.11169 20.7816 4.68372 21.0673 4.42517C21.353 4.16663 21.7831 4.16663 22.6433 4.16663H27.3567C28.2169 4.16663 28.647 4.16663 28.9327 4.42517ZM25 33.3333C29.6024 33.3333 33.3333 29.6023 33.3333 25C33.3333 20.3976 29.6024 16.6666 25 16.6666C20.3976 16.6666 16.6667 20.3976 16.6667 25C16.6667 29.6023 20.3976 33.3333 25 33.3333Z" fill="#D2D4DC"/>
<path d="M29.3468 5.96762L29.9438 5.90792L29.9438 5.90792L29.3468 5.96762ZM28.9327 4.42517L29.3353 3.9803L29.3353 3.9803L28.9327 4.42517ZM29.6636 9.13559L30.2606 9.07589L30.2606 9.07589L29.6636 9.13559ZM32.9201 10.4845L33.3001 10.9489L33.3001 10.9489L32.9201 10.4845ZM35.3842 8.46845L35.0042 8.00407L35.0042 8.00407L35.3842 8.46845ZM38.0649 8.60215L37.6406 9.02641L37.6406 9.02641L38.0649 8.60215ZM41.3977 11.935L41.822 11.5107L41.822 11.5107L41.3977 11.935ZM42.3293 13.2322L41.7301 13.2621L41.7301 13.2621L42.3293 13.2322ZM41.5314 14.6157L41.0671 14.2358L41.0671 14.2358L41.5314 14.6157ZM39.5153 17.0798L39.9797 17.4598L39.9797 17.4598L39.5153 17.0798ZM38.1849 19.5385L37.6306 19.7681L37.6306 19.7681L38.1849 19.5385ZM40.8642 20.3364L40.8045 20.9334L40.8045 20.9334L40.8642 20.3364ZM44.0323 20.6532L43.9726 21.2502L43.9726 21.2502L44.0323 20.6532ZM45.5748 21.0673L46.0197 20.6647L46.0197 20.6647L45.5748 21.0673ZM45.5748 28.9326L46.0197 29.3352L46.0197 29.3352L45.5748 28.9326ZM44.0323 29.3467L44.092 29.9437L44.092 29.9437L44.0323 29.3467ZM40.865 29.6635L40.9247 30.2605L40.9247 30.2605L40.865 29.6635ZM38.1857 30.4613L38.7401 30.6909L38.7401 30.6909L38.1857 30.4613ZM39.5161 32.92L39.9805 32.5401L39.9805 32.5401L39.5161 32.92ZM41.5315 35.3833L41.0672 35.7632L41.0672 35.7632L41.5315 35.3833ZM42.3294 36.7668L41.7302 36.7369L41.7302 36.7369L42.3294 36.7668ZM41.3978 38.064L40.9736 37.6397L40.9736 37.6397L41.3978 38.064ZM38.065 41.3969L38.4892 41.8211L38.4892 41.8211L38.065 41.3969ZM36.7678 42.3284L36.7379 41.7292L36.7379 41.7292L36.7678 42.3284ZM35.3843 41.5306L35.0043 41.9949L35.0043 41.9949L35.3843 41.5306ZM32.9202 39.5145L32.5403 39.9789L32.5403 39.9789L32.9202 39.5145ZM30.4615 38.1841L30.6911 38.7384L30.6911 38.7384L30.4615 38.1841ZM29.6637 40.8634L30.2607 40.9231L30.2607 40.9231L29.6637 40.8634ZM29.3468 44.0323L28.7497 43.9726L28.7497 43.9726L29.3468 44.0323ZM28.9327 45.5747L29.3353 46.0196L29.3353 46.0196L28.9327 45.5747ZM21.0673 45.5747L20.6647 46.0196L20.6647 46.0196L21.0673 45.5747ZM20.6532 44.0323L21.2503 43.9726L21.2503 43.9726L20.6532 44.0323ZM20.3364 40.8642L19.7394 40.9239L19.7394 40.9239L20.3364 40.8642ZM19.5386 38.1849L19.309 38.7393L19.309 38.7393L19.5386 38.1849ZM17.0799 39.5153L17.4598 39.9797L17.4598 39.9797L17.0799 39.5153ZM14.6156 41.5315L14.2357 41.0671L14.2357 41.0671L14.6156 41.5315ZM13.2322 42.3294L13.2621 41.7301L13.2621 41.7301L13.2322 42.3294ZM11.935 41.3978L11.5107 41.8221L11.5107 41.8221L11.935 41.3978ZM8.60209 38.0649L9.02636 37.6407L9.02636 37.6407L8.60209 38.0649ZM7.67052 36.7677L7.07126 36.7976L7.07126 36.7976L7.67052 36.7677ZM8.46839 35.3842L8.00402 35.0043L8.00402 35.0043L8.46839 35.3842ZM10.4845 32.9201L10.9489 33.3L10.9489 33.3L10.4845 32.9201ZM11.8149 30.4614L12.3692 30.2318L12.3692 30.2318L11.8149 30.4614ZM9.13562 29.6635L9.07592 30.2605L9.07592 30.2605L9.13562 29.6635ZM5.96766 29.3467L5.90795 29.9437L5.90795 29.9437L5.96766 29.3467ZM4.42521 28.9326L3.98034 29.3352L3.98034 29.3352L4.42521 28.9326ZM4.42521 21.0673L4.87008 21.4699L4.87008 21.4699L4.42521 21.0673ZM5.96766 20.6532L6.02736 21.2502L6.02736 21.2502L5.96766 20.6532ZM9.13641 20.3363L9.0767 19.7393L9.0767 19.7393L9.13641 20.3363ZM11.8157 19.5385L12.37 19.7681L12.37 19.7681L11.8157 19.5385ZM10.4853 17.0798L10.9497 16.6998L10.9497 16.6998L10.4853 17.0798ZM8.46849 14.6148L8.93286 14.2348L8.93286 14.2348L8.46849 14.6148ZM7.67061 13.2313L7.07136 13.2014L7.07136 13.2014L7.67061 13.2313ZM11.9351 8.6012L12.3593 9.02547L12.3593 9.02547L11.9351 8.6012ZM14.6157 8.4675L14.2358 8.93188L14.2358 8.93188L14.6157 8.4675ZM17.08 10.4837L16.7 10.9481L16.7 10.9481L17.08 10.4837ZM19.5387 11.8141L19.7683 12.3684L19.7683 12.3684L19.5387 11.8141ZM20.3365 9.13478L19.7395 9.07508L19.7395 9.07508L20.3365 9.13478ZM20.6532 5.96762L21.2503 6.02732L21.2503 6.02732L20.6532 5.96762ZM29.9438 5.90792C29.9026 5.49591 29.8671 5.12954 29.7993 4.83685C29.7275 4.52747 29.6039 4.22339 29.3353 3.9803L28.5301 4.87004C28.5472 4.88551 28.5878 4.92468 28.6303 5.1079C28.6766 5.30781 28.7054 5.58339 28.7497 6.02732L29.9438 5.90792ZM30.2606 9.07589L29.9438 5.90792L28.7497 6.02732L29.0665 9.1953L30.2606 9.07589ZM30.691 11.2606C30.6848 11.258 30.5946 11.2384 30.4983 10.8556C30.4018 10.4719 30.3443 9.91294 30.2606 9.07589L29.0665 9.1953C29.1462 9.99178 29.2112 10.658 29.3346 11.1483C29.4581 11.6395 29.6852 12.1428 30.2318 12.3692L30.691 11.2606ZM32.5402 10.0201C31.8891 10.5528 31.4532 10.9074 31.1137 11.1105C30.7749 11.313 30.6973 11.2631 30.691 11.2606L30.2318 12.3692C30.7784 12.5956 31.2948 12.4003 31.7295 12.1404C32.1635 11.8808 32.6805 11.4558 33.3001 10.9489L32.5402 10.0201ZM35.0042 8.00407L32.5402 10.0201L33.3001 10.9489L35.7641 8.93282L35.0042 8.00407ZM36.7975 7.07132C36.4357 7.05327 36.1333 7.18087 35.8638 7.34891C35.6088 7.50789 35.3247 7.74187 35.0042 8.00407L35.7641 8.93282C36.1094 8.65031 36.3246 8.47576 36.4987 8.36718C36.6583 8.26766 36.7148 8.26868 36.7378 8.26983L36.7975 7.07132ZM38.4891 8.17788C38.1964 7.8851 37.9369 7.62401 37.699 7.44045C37.4476 7.24643 37.1594 7.08936 36.7975 7.07132L36.7378 8.26983C36.7608 8.27098 36.817 8.27557 36.9659 8.39048C37.1284 8.51585 37.3251 8.71094 37.6406 9.02641L38.4891 8.17788ZM41.822 11.5107L38.4891 8.17788L37.6406 9.02641L40.9735 12.3593L41.822 11.5107ZM42.9286 13.2023C42.9105 12.8405 42.7535 12.5523 42.5594 12.3008C42.3759 12.063 42.1148 11.8035 41.822 11.5107L40.9735 12.3593C41.2889 12.6747 41.484 12.8715 41.6094 13.034C41.7243 13.1829 41.7289 13.2391 41.7301 13.2621L42.9286 13.2023ZM41.9958 14.9956C42.258 14.6752 42.492 14.391 42.651 14.1361C42.819 13.8666 42.9466 13.5642 42.9286 13.2023L41.7301 13.2621C41.7312 13.2851 41.7322 13.3416 41.6327 13.5011C41.5241 13.6753 41.3496 13.8905 41.0671 14.2358L41.9958 14.9956ZM39.9797 17.4598L41.9958 14.9956L41.0671 14.2358L39.051 16.6999L39.9797 17.4598ZM38.7393 19.3089C38.7367 19.3027 38.6868 19.2251 38.8894 18.8863C39.0924 18.5468 39.447 18.1108 39.9797 17.4598L39.051 16.6999C38.5441 17.3194 38.119 17.8364 37.8595 18.2704C37.5995 18.7051 37.4042 19.2216 37.6306 19.7681L38.7393 19.3089ZM40.9239 19.7394C40.0869 19.6557 39.5279 19.5982 39.1443 19.5016C38.7615 19.4053 38.7419 19.3152 38.7393 19.3089L37.6306 19.7681C37.857 20.3147 38.3603 20.5418 38.8515 20.6654C39.3419 20.7887 40.0081 20.8538 40.8045 20.9334L40.9239 19.7394ZM44.092 20.0562L40.9239 19.7394L40.8045 20.9334L43.9726 21.2502L44.092 20.0562ZM46.0197 20.6647C45.7766 20.3961 45.4725 20.2724 45.1631 20.2007C44.8704 20.1328 44.504 20.0974 44.092 20.0562L43.9726 21.2502C44.4166 21.2946 44.6921 21.3233 44.8921 21.3697C45.0753 21.4122 45.1145 21.4528 45.1299 21.4699L46.0197 20.6647ZM46.4333 22.6433C46.4333 22.2292 46.4345 21.8611 46.3961 21.5631C46.3555 21.2482 46.2627 20.9333 46.0197 20.6647L45.1299 21.4699C45.1454 21.487 45.1819 21.53 45.2059 21.7165C45.2322 21.9201 45.2333 22.1971 45.2333 22.6433H46.4333ZM46.4333 27.3566V22.6433H45.2333V27.3566H46.4333ZM46.0197 29.3352C46.2627 29.0666 46.3555 28.7518 46.3961 28.4368C46.4345 28.1388 46.4333 27.7707 46.4333 27.3566H45.2333C45.2333 27.8028 45.2322 28.0799 45.2059 28.2834C45.1819 28.4699 45.1454 28.513 45.1299 28.53L46.0197 29.3352ZM44.092 29.9437C44.504 29.9025 44.8704 29.8671 45.1631 29.7992C45.4725 29.7275 45.7766 29.6039 46.0197 29.3352L45.1299 28.53C45.1145 28.5471 45.0753 28.5877 44.8921 28.6302C44.6921 28.6766 44.4166 28.7053 43.9726 28.7497L44.092 29.9437ZM40.9247 30.2605L44.092 29.9437L43.9726 28.7497L40.8053 29.0664L40.9247 30.2605ZM38.7401 30.6909C38.7426 30.6847 38.7623 30.5945 39.1451 30.4982C39.5287 30.4017 40.0877 30.3442 40.9247 30.2605L40.8053 29.0664C40.0088 29.1461 39.3426 29.2111 38.8523 29.3345C38.3611 29.458 37.8578 29.6851 37.6314 30.2317L38.7401 30.6909ZM39.9805 32.5401C39.4478 31.889 39.0932 31.4531 38.8902 31.1136C38.6876 30.7748 38.7375 30.6971 38.7401 30.6909L37.6314 30.2317C37.405 30.7783 37.6003 31.2947 37.8603 31.7294C38.1198 32.1634 38.5449 32.6804 39.0517 33.2999L39.9805 32.5401ZM41.9959 35.0034L39.9805 32.5401L39.0517 33.2999L41.0672 35.7632L41.9959 35.0034ZM42.9287 36.7967C42.9467 36.4348 42.8191 36.1324 42.6511 35.8629C42.4921 35.608 42.2581 35.3238 41.9959 35.0034L41.0672 35.7632C41.3497 36.1085 41.5242 36.3237 41.6328 36.4978C41.7323 36.6574 41.7313 36.7139 41.7302 36.7369L42.9287 36.7967ZM41.8221 38.4882C42.1149 38.1955 42.376 37.936 42.5595 37.6981C42.7536 37.4467 42.9106 37.1585 42.9287 36.7967L41.7302 36.7369C41.729 36.7599 41.7244 36.8161 41.6095 36.965C41.4841 37.1275 41.289 37.3242 40.9736 37.6397L41.8221 38.4882ZM38.4892 41.8211L41.8221 38.4882L40.9736 37.6397L37.6407 40.9726L38.4892 41.8211ZM36.7976 42.9277C37.1595 42.9096 37.4477 42.7526 37.6991 42.5586C37.937 42.375 38.1964 42.1139 38.4892 41.8211L37.6407 40.9726C37.3252 41.2881 37.1285 41.4832 36.966 41.6085C36.8171 41.7234 36.7609 41.728 36.7379 41.7292L36.7976 42.9277ZM35.0043 41.9949C35.3248 42.2571 35.6089 42.4911 35.8639 42.6501C36.1334 42.8181 36.4358 42.9457 36.7976 42.9277L36.7379 41.7292C36.7149 41.7303 36.6584 41.7313 36.4988 41.6318C36.3247 41.5232 36.1095 41.3487 35.7642 41.0662L35.0043 41.9949ZM32.5403 39.9789L35.0043 41.9949L35.7642 41.0662L33.3002 39.0501L32.5403 39.9789ZM30.6911 38.7384C30.6973 38.7359 30.775 38.686 31.1138 38.8885C31.4533 39.0916 31.8892 39.4462 32.5403 39.9789L33.3002 39.0501C32.6806 38.5432 32.1636 38.1181 31.7296 37.8586C31.2949 37.5987 30.7785 37.4034 30.2319 37.6298L30.6911 38.7384ZM30.2607 40.9231C30.3444 40.0861 30.4019 39.5271 30.4984 39.1434C30.5947 38.7606 30.6849 38.741 30.6911 38.7384L30.2319 37.6298C29.6853 37.8562 29.4582 38.3595 29.3347 38.8507C29.2113 39.341 29.1463 40.0072 29.0666 40.8037L30.2607 40.9231ZM29.9438 44.092L30.2607 40.9231L29.0666 40.8037L28.7497 43.9726L29.9438 44.092ZM29.3353 46.0196C29.6039 45.7765 29.7275 45.4724 29.7993 45.1631C29.8671 44.8704 29.9026 44.504 29.9438 44.092L28.7497 43.9726C28.7054 44.4165 28.6766 44.6921 28.6303 44.892C28.5878 45.0752 28.5472 45.1144 28.5301 45.1299L29.3353 46.0196ZM27.3567 46.4333C27.7708 46.4333 28.1388 46.4345 28.4368 46.3961C28.7518 46.3555 29.0667 46.2627 29.3353 46.0196L28.5301 45.1299C28.513 45.1453 28.47 45.1819 28.2834 45.2059C28.0799 45.2321 27.8028 45.2333 27.3567 45.2333V46.4333ZM22.6433 46.4333H27.3567V45.2333H22.6433V46.4333ZM20.6647 46.0196C20.9333 46.2627 21.2482 46.3555 21.5632 46.3961C21.8612 46.4345 22.2293 46.4333 22.6433 46.4333V45.2333C22.1972 45.2333 21.9201 45.2321 21.7166 45.2059C21.53 45.1819 21.487 45.1453 21.4699 45.1299L20.6647 46.0196ZM20.0562 44.092C20.0974 44.504 20.1329 44.8704 20.2007 45.1631C20.2725 45.4724 20.3961 45.7765 20.6647 46.0196L21.4699 45.1299C21.4528 45.1144 21.4122 45.0752 21.3697 44.892C21.3234 44.6921 21.2947 44.4165 21.2503 43.9726L20.0562 44.092ZM19.7394 40.9239L20.0562 44.092L21.2503 43.9726L20.9334 40.8045L19.7394 40.9239ZM19.309 38.7393C19.3152 38.7418 19.4054 38.7614 19.5017 39.1442C19.5982 39.5279 19.6557 40.0869 19.7394 40.9239L20.9334 40.8045C20.8538 40.008 20.7888 39.3418 20.6654 38.8515C20.5418 38.3603 20.3148 37.857 19.7682 37.6306L19.309 38.7393ZM17.4598 39.9797C18.1109 39.447 18.5468 39.0924 18.8863 38.8894C19.2251 38.6868 19.3027 38.7367 19.309 38.7393L19.7682 37.6306C19.2216 37.4042 18.7052 37.5995 18.2705 37.8595C17.8365 38.119 17.3195 38.544 16.6999 39.0509L17.4598 39.9797ZM14.9956 41.9959L17.4598 39.9797L16.6999 39.0509L14.2357 41.0671L14.9956 41.9959ZM13.2023 42.9286C13.5641 42.9467 13.8665 42.8191 14.136 42.651C14.391 42.492 14.6751 42.2581 14.9956 41.9959L14.2357 41.0671C13.8904 41.3496 13.6752 41.5242 13.5011 41.6328C13.3415 41.7323 13.2851 41.7313 13.2621 41.7301L13.2023 42.9286ZM11.5107 41.8221C11.8035 42.1148 12.0629 42.3759 12.3008 42.5595C12.5522 42.7535 12.8405 42.9106 13.2023 42.9286L13.2621 41.7301C13.239 41.729 13.1828 41.7244 13.0339 41.6095C12.8714 41.4841 12.6747 41.289 12.3592 40.9735L11.5107 41.8221ZM8.17783 38.4892L11.5107 41.8221L12.3592 40.9735L9.02636 37.6407L8.17783 38.4892ZM7.07126 36.7976C7.08931 37.1594 7.24637 37.4477 7.44039 37.6991C7.62395 37.937 7.88504 38.1964 8.17783 38.4892L9.02636 37.6407C8.71089 37.3252 8.51579 37.1285 8.39042 36.966C8.27552 36.8171 8.27092 36.7608 8.26977 36.7378L7.07126 36.7976ZM8.00402 35.0043C7.74182 35.3248 7.50783 35.6089 7.34886 35.8639C7.18082 36.1333 7.05322 36.4358 7.07126 36.7976L8.26977 36.7378C8.26862 36.7148 8.2676 36.6584 8.36712 36.4988C8.4757 36.3247 8.65025 36.1095 8.93276 35.7642L8.00402 35.0043ZM10.0202 32.5401L8.00402 35.0043L8.93276 35.7642L10.9489 33.3L10.0202 32.5401ZM11.2606 30.691C11.2632 30.6972 11.3131 30.7748 11.1105 31.1136C10.9074 31.4531 10.5529 31.8891 10.0202 32.5401L10.9489 33.3C11.4558 32.6805 11.8809 32.1635 12.1404 31.7295C12.4003 31.2948 12.5956 30.7783 12.3692 30.2318L11.2606 30.691ZM9.07592 30.2605C9.91297 30.3442 10.4719 30.4017 10.8556 30.4983C11.2384 30.5946 11.258 30.6847 11.2606 30.691L12.3692 30.2318C12.1428 29.6852 11.6396 29.4581 11.1484 29.3345C10.658 29.2112 9.99181 29.1461 9.19533 29.0665L9.07592 30.2605ZM5.90795 29.9437L9.07592 30.2605L9.19533 29.0665L6.02736 28.7497L5.90795 29.9437ZM3.98034 29.3352C4.22343 29.6039 4.52751 29.7275 4.83689 29.7992C5.12958 29.8671 5.49595 29.9025 5.90795 29.9437L6.02736 28.7497C5.58343 28.7053 5.30785 28.6766 5.10794 28.6302C4.92472 28.5877 4.88554 28.5471 4.87008 28.53L3.98034 29.3352ZM3.56666 27.3566C3.56666 27.7707 3.5655 28.1388 3.6039 28.4368C3.6445 28.7518 3.73725 29.0666 3.98034 29.3352L4.87008 28.53C4.85462 28.513 4.8181 28.4699 4.79406 28.2834C4.76783 28.0799 4.76666 27.8028 4.76666 27.3566H3.56666ZM3.56666 22.6433V27.3566H4.76666V22.6433H3.56666ZM3.98034 20.6647C3.73725 20.9333 3.6445 21.2482 3.6039 21.5631C3.5655 21.8611 3.56666 22.2292 3.56666 22.6433H4.76666C4.76666 22.1971 4.76783 21.9201 4.79406 21.7165C4.8181 21.53 4.85462 21.487 4.87008 21.4699L3.98034 20.6647ZM5.90796 20.0562C5.49595 20.0974 5.12958 20.1328 4.83689 20.2007C4.52751 20.2724 4.22343 20.3961 3.98034 20.6647L4.87008 21.4699C4.88555 21.4528 4.92472 21.4122 5.10794 21.3697C5.30785 21.3233 5.58343 21.2946 6.02736 21.2502L5.90796 20.0562ZM9.0767 19.7393L5.90795 20.0562L6.02736 21.2502L9.19611 20.9333L9.0767 19.7393ZM11.2614 19.3089C11.2588 19.3151 11.2392 19.4053 10.8564 19.5016C10.4727 19.5981 9.91376 19.6556 9.0767 19.7393L9.19611 20.9333C9.99259 20.8537 10.6588 20.7887 11.1491 20.6653C11.6404 20.5417 12.1436 20.3147 12.37 19.7681L11.2614 19.3089ZM10.0209 17.4597C10.5536 18.1108 10.9082 18.5467 11.1113 18.8862C11.3138 19.225 11.2639 19.3026 11.2614 19.3089L12.37 19.7681C12.5964 19.2215 12.4011 18.7051 12.1412 18.2704C11.8817 17.8364 11.4566 17.3193 10.9497 16.6998L10.0209 17.4597ZM8.00411 14.9947L10.0209 17.4597L10.9497 16.6998L8.93286 14.2348L8.00411 14.9947ZM7.07136 13.2014C7.05331 13.5632 7.18092 13.8657 7.34896 14.1351C7.50793 14.3901 7.74192 14.6742 8.00411 14.9947L8.93286 14.2348C8.65035 13.8895 8.4758 13.6743 8.36722 13.5002C8.2677 13.3406 8.26872 13.2842 8.26987 13.2612L7.07136 13.2014ZM8.17792 11.5098C7.88514 11.8026 7.62405 12.062 7.44049 12.2999C7.24647 12.5513 7.08941 12.8396 7.07136 13.2014L8.26987 13.2612C8.27102 13.2382 8.27561 13.1819 8.39052 13.033C8.51589 12.8705 8.71098 12.6738 9.02645 12.3583L8.17792 11.5098ZM11.5108 8.17694L8.17792 11.5098L9.02645 12.3583L12.3593 9.02547L11.5108 8.17694ZM13.2024 7.07037C12.8406 7.08842 12.5523 7.24548 12.3009 7.4395C12.063 7.62306 11.8036 7.88415 11.5108 8.17694L12.3593 9.02547C12.6748 8.71 12.8715 8.5149 13.034 8.38953C13.1829 8.27463 13.2391 8.27003 13.2622 8.26888L13.2024 7.07037ZM14.9957 8.00313C14.6752 7.74093 14.3911 7.50695 14.1361 7.34797C13.8666 7.17993 13.5642 7.05233 13.2024 7.07037L13.2622 8.26888C13.2852 8.26773 13.3416 8.26671 13.5012 8.36623C13.6753 8.47481 13.8905 8.64936 14.2358 8.93188L14.9957 8.00313ZM17.4599 10.0193L14.9957 8.00313L14.2358 8.93188L16.7 10.9481L17.4599 10.0193ZM19.3091 11.2597C19.3028 11.2623 19.2252 11.3122 18.8864 11.1096C18.5469 10.9066 18.111 10.552 17.4599 10.0193L16.7 10.9481C17.3195 11.4549 17.8366 11.88 18.2706 12.1395C18.7053 12.3995 19.2217 12.5948 19.7683 12.3684L19.3091 11.2597ZM19.7395 9.07508C19.6558 9.91213 19.5983 10.4711 19.5018 10.8547C19.4055 11.2376 19.3153 11.2572 19.3091 11.2597L19.7683 12.3684C20.3149 12.142 20.5419 11.6387 20.6655 11.1475C20.7889 10.6572 20.8539 9.99097 20.9335 9.19448L19.7395 9.07508ZM20.0562 5.90792L19.7395 9.07508L20.9335 9.19448L21.2503 6.02732L20.0562 5.90792ZM20.6647 3.9803C20.3961 4.22339 20.2725 4.52747 20.2007 4.83685C20.1329 5.12955 20.0974 5.49591 20.0562 5.90792L21.2503 6.02732C21.2947 5.58339 21.3234 5.30781 21.3697 5.1079C21.4122 4.92468 21.4528 4.88551 21.4699 4.87005L20.6647 3.9803ZM22.6433 3.56663C22.2293 3.56663 21.8612 3.56546 21.5632 3.60387C21.2482 3.64446 20.9333 3.73722 20.6647 3.9803L21.4699 4.87005C21.487 4.85458 21.53 4.81806 21.7166 4.79402C21.9201 4.76779 22.1972 4.76663 22.6433 4.76663V3.56663ZM27.3567 3.56663H22.6433V4.76663H27.3567V3.56663ZM29.3353 3.9803C29.0667 3.73722 28.7518 3.64446 28.4368 3.60387C28.1388 3.56546 27.7708 3.56663 27.3567 3.56663V4.76663C27.8028 4.76663 28.0799 4.76779 28.2834 4.79402C28.47 4.81806 28.513 4.85458 28.5301 4.87005L29.3353 3.9803ZM32.7333 25C32.7333 29.271 29.271 32.7333 25 32.7333V33.9333C29.9337 33.9333 33.9333 29.9337 33.9333 25H32.7333ZM25 17.2666C29.271 17.2666 32.7333 20.729 32.7333 25H33.9333C33.9333 20.0662 29.9337 16.0666 25 16.0666V17.2666ZM17.2667 25C17.2667 20.729 20.729 17.2666 25 17.2666V16.0666C20.0663 16.0666 16.0667 20.0662 16.0667 25H17.2667ZM25 32.7333C20.729 32.7333 17.2667 29.271 17.2667 25H16.0667C16.0667 29.9337 20.0663 33.9333 25 33.9333V32.7333Z" fill="#D2D4DC"/>
</svg>
